<svg xmlns="http://www.w3.org/2000/svg" width="1600" height="4800" viewBox="0 0 1600 4800">
  <defs>
    <style>
      text { font-family: 'Noto Sans CJK SC', 'Microsoft YaHei', 'PingFang SC', sans-serif; }
    </style>
    <filter id="shadow" x="-2%" y="-2%" width="104%" height="104%">
      <feDropShadow dx="0" dy="2" stdDeviation="4" flood-opacity="0.10"/>
    </filter>
    <linearGradient id="headerGrad" x1="0" y1="0" x2="1" y2="1">
      <stop offset="0%" stop-color="#1e3a5f"/>
      <stop offset="100%" stop-color="#2d5a8e"/>
    </linearGradient>
    <linearGradient id="buyGrad" x1="0" y1="0" x2="0" y2="1">
      <stop offset="0%" stop-color="#e8f5e9"/>
      <stop offset="100%" stop-color="#c8e6c9"/>
    </linearGradient>
    <linearGradient id="sellGrad" x1="0" y1="0" x2="0" y2="1">
      <stop offset="0%" stop-color="#ffebee"/>
      <stop offset="100%" stop-color="#ffcdd2"/>
    </linearGradient>
    <linearGradient id="countdownBuyGrad" x1="0" y1="0" x2="0" y2="1">
      <stop offset="0%" stop-color="#fff8e1"/>
      <stop offset="100%" stop-color="#ffecb3"/>
    </linearGradient>
    <linearGradient id="blueCardGrad" x1="0" y1="0" x2="0" y2="1">
      <stop offset="0%" stop-color="#e3f2fd"/>
      <stop offset="100%" stop-color="#bbdefb"/>
    </linearGradient>
    <linearGradient id="orangeCardGrad" x1="0" y1="0" x2="0" y2="1">
      <stop offset="0%" stop-color="#fff3e0"/>
      <stop offset="100%" stop-color="#ffe0b2"/>
    </linearGradient>
    <linearGradient id="purpleCardGrad" x1="0" y1="0" x2="0" y2="1">
      <stop offset="0%" stop-color="#f3e5f5"/>
      <stop offset="100%" stop-color="#e1bee7"/>
    </linearGradient>
    <linearGradient id="riskGrad" x1="0" y1="0" x2="0" y2="1">
      <stop offset="0%" stop-color="#fff8e1"/>
      <stop offset="100%" stop-color="#fff9c4"/>
    </linearGradient>
  </defs>

  <!-- Background -->
  <rect width="1600" height="4800" fill="#f8f9fa"/>

  <!-- ==================== HEADER ==================== -->
  <rect x="0" y="0" width="1600" height="200" fill="url(#headerGrad)" rx="0"/>
  <text x="800" y="80" text-anchor="middle" fill="white" font-size="52" font-weight="bold">TD Sequential（TD13）完整教程</text>
  <text x="800" y="130" text-anchor="middle" fill="#b0c4de" font-size="28">Tom DeMark 狄克马克序列 ｜ 从 TD9 Setup 到 TD13 Countdown</text>
  <text x="800" y="170" text-anchor="middle" fill="#87a8c7" font-size="20">精准识别市场转折点的技术分析工具</text>

  <!-- ==================== SECTION 1: TWO-PHASE STRUCTURE ==================== -->
  <rect x="60" y="230" width="1480" height="380" rx="16" fill="white" filter="url(#shadow)"/>
  <rect x="60" y="230" width="1480" height="60" rx="16" fill="#2d5a8e"/>
  <rect x="60" y="270" width="1480" height="20" fill="#2d5a8e"/>
  <text x="800" y="270" text-anchor="middle" fill="white" font-size="28" font-weight="bold">📐 TD指标的两层结构</text>

  <!-- Phase 1 card -->
  <rect x="100" y="310" width="660" height="270" rx="12" fill="url(#blueCardGrad)" stroke="#90caf9" stroke-width="2"/>
  <text x="430" y="350" text-anchor="middle" fill="#1565c0" font-size="26" font-weight="bold">第一阶段：TD Setup（排列）</text>
  <line x1="140" y1="365" x2="720" y2="365" stroke="#90caf9" stroke-width="1.5"/>
  <text x="140" y="400" fill="#333" font-size="22">📌 计数范围：1 → 9</text>
  <text x="140" y="435" fill="#333" font-size="22">📌 比较对象：Close[i] vs Close[i-4]</text>
  <text x="140" y="470" fill="#333" font-size="22">📌 条件要求：必须连续 9 根K线</text>
  <text x="140" y="505" fill="#333" font-size="22">📌 信号含义：趋势可能开始衰竭</text>
  <text x="140" y="545" fill="#c62828" font-size="22" font-weight="bold">⚡ 任何一根不满足 → 计数归零重来</text>

  <!-- Phase 2 card -->
  <rect x="840" y="310" width="660" height="270" rx="12" fill="url(#orangeCardGrad)" stroke="#ffb74d" stroke-width="2"/>
  <text x="1170" y="350" text-anchor="middle" fill="#e65100" font-size="26" font-weight="bold">第二阶段：TD Countdown（倒计时）</text>
  <line x1="880" y1="365" x2="1460" y2="365" stroke="#ffb74d" stroke-width="1.5"/>
  <text x="880" y="400" fill="#333" font-size="22">📌 计数范围：1 → 13</text>
  <text x="880" y="435" fill="#333" font-size="22">📌 比较对象：Close[i] vs Low/High[i-2]</text>
  <text x="880" y="470" fill="#333" font-size="22">📌 条件要求：不需要连续，累计到13</text>
  <text x="880" y="505" fill="#333" font-size="22">📌 信号含义：趋势反转的高概率确认</text>
  <text x="880" y="545" fill="#e65100" font-size="22" font-weight="bold">⚡ 必须先完成 TD9 才能开始计数</text>

  <!-- Arrow between phases -->
  <polygon points="770,430 800,410 800,420 830,420 830,440 800,440 800,450" fill="#2d5a8e"/>

  <!-- ==================== SECTION 2: BUY SETUP VISUAL ==================== -->
  <rect x="60" y="640" width="1480" height="560" rx="16" fill="white" filter="url(#shadow)"/>
  <rect x="60" y="640" width="1480" height="60" rx="16" fill="#2e7d32"/>
  <rect x="60" y="680" width="1480" height="20" fill="#2e7d32"/>
  <text x="800" y="680" text-anchor="middle" fill="white" font-size="28" font-weight="bold">🟢 买入 Setup（TD9）— 识别下跌衰竭</text>

  <!-- K-line chart illustration for BUY setup -->
  <text x="140" y="740" fill="#2e7d32" font-size="22" font-weight="bold">核心规则：连续 9 根K线，收盘价都低于各自 4 根K线前的收盘价</text>

  <!-- Visual K-line representation -->
  <g transform="translate(120, 760)">
    <!-- Background grid -->
    <line x1="0" y1="200" x2="1360" y2="200" stroke="#ddd" stroke-width="1" stroke-dasharray="5,5"/>
    <text x="-10" y="205" text-anchor="end" fill="#999" font-size="16">参考线</text>

    <!-- Declining price candles -->
    <!-- Candle 1 -->
    <rect x="30" y="60" width="30" height="120" fill="#c8e6c9" stroke="#2e7d32" stroke-width="2" rx="2"/>
    <line x1="45" y1="50" x2="45" y2="190" stroke="#2e7d32" stroke-width="1.5"/>
    <text x="45" y="210" text-anchor="middle" fill="#2e7d32" font-size="16" font-weight="bold">1</text>

    <!-- Candle 2 -->
    <rect x="90" y="70" width="30" height="110" fill="#c8e6c9" stroke="#2e7d32" stroke-width="2" rx="2"/>
    <line x1="105" y1="60" x2="105" y2="195" stroke="#2e7d32" stroke-width="1.5"/>
    <text x="105" y="210" text-anchor="middle" fill="#2e7d32" font-size="16" font-weight="bold">2</text>

    <!-- Candle 3 -->
    <rect x="150" y="80" width="30" height="100" fill="#c8e6c9" stroke="#2e7d32" stroke-width="2" rx="2"/>
    <line x1="165" y1="70" x2="165" y2="195" stroke="#2e7d32" stroke-width="1.5"/>
    <text x="165" y="210" text-anchor="middle" fill="#2e7d32" font-size="16" font-weight="bold">3</text>

    <!-- Candle 4 -->
    <rect x="210" y="75" width="30" height="105" fill="#ef9a9a" stroke="#c62828" stroke-width="2" rx="2"/>
    <line x1="225" y1="65" x2="225" y2="195" stroke="#c62828" stroke-width="1.5"/>
    <text x="225" y="210" text-anchor="middle" fill="#c62828" font-size="16" font-weight="bold">4</text>

    <!-- Candle 5 -->
    <rect x="270" y="90" width="30" height="90" fill="#c8e6c9" stroke="#2e7d32" stroke-width="2" rx="2"/>
    <line x1="285" y1="80" x2="285" y2="190" stroke="#2e7d32" stroke-width="1.5"/>
    <text x="285" y="210" text-anchor="middle" fill="#2e7d32" font-size="16" font-weight="bold">5</text>

    <!-- Candle 6 -->
    <rect x="330" y="95" width="30" height="85" fill="#c8e6c9" stroke="#2e7d32" stroke-width="2" rx="2"/>
    <line x1="345" y1="85" x2="345" y2="190" stroke="#2e7d32" stroke-width="1.5"/>
    <text x="345" y="210" text-anchor="middle" fill="#2e7d32" font-size="16" font-weight="bold">6</text>

    <!-- Candle 7 -->
    <rect x="390" y="100" width="30" height="80" fill="#c8e6c9" stroke="#2e7d32" stroke-width="2" rx="2"/>
    <line x1="405" y1="90" x2="405" y2="190" stroke="#2e7d32" stroke-width="1.5"/>
    <text x="405" y="210" text-anchor="middle" fill="#2e7d32" font-size="16" font-weight="bold">7</text>

    <!-- Candle 8 -->
    <rect x="450" y="105" width="30" height="75" fill="#c8e6c9" stroke="#2e7d32" stroke-width="2" rx="2"/>
    <line x1="465" y1="95" x2="465" y2="190" stroke="#2e7d32" stroke-width="1.5"/>
    <text x="465" y="210" text-anchor="middle" fill="#2e7d32" font-size="16" font-weight="bold">8</text>

    <!-- Candle 9 - highlighted -->
    <rect x="510" y="115" width="30" height="70" fill="#66bb6a" stroke="#1b5e20" stroke-width="3" rx="2"/>
    <line x1="525" y1="105" x2="525" y2="195" stroke="#1b5e20" stroke-width="2"/>
    <text x="525" y="215" text-anchor="middle" fill="#1b5e20" font-size="20" font-weight="bold">9✅</text>

    <!-- Arrow showing comparison: Close[i] vs Close[i-4] -->
    <line x1="525" y1="140" x2="225" y2="155" stroke="#1565c0" stroke-width="2" stroke-dasharray="6,3"/>
    <text x="375" y="130" text-anchor="middle" fill="#1565c0" font-size="15" font-weight="bold">Close[9] &lt; Close[9-4]</text>

    <!-- Result label -->
    <rect x="580" y="100" width="200" height="60" rx="8" fill="#e8f5e9" stroke="#2e7d32" stroke-width="2"/>
    <text x="680" y="138" text-anchor="middle" fill="#1b5e20" font-size="20" font-weight="bold">TD9 完成！</text>
  </g>

  <!-- Formula box -->
  <rect x="100" y="1010" width="1400" height="80" rx="10" fill="#e8f5e9" stroke="#66bb6a" stroke-width="2"/>
  <text x="800" y="1040" text-anchor="middle" fill="#1b5e20" font-size="22" font-weight="bold">公式：Close[i] &lt; Close[i-4]  连续满足 9 次 → 买入 Setup 形成</text>
  <text x="800" y="1070" text-anchor="middle" fill="#c62828" font-size="20">⚠️ 中间任何一根K线不满足条件，计数立即归零，从头开始！</text>

  <!-- ==================== SECTION 3: COUNTDOWN VISUAL ==================== -->
  <rect x="60" y="1230" width="1480" height="650" rx="16" fill="white" filter="url(#shadow)"/>
  <rect x="60" y="1230" width="1480" height="60" rx="16" fill="#e65100"/>
  <rect x="60" y="1270" width="1480" height="20" fill="#e65100"/>
  <text x="800" y="1270" text-anchor="middle" fill="white" font-size="28" font-weight="bold">🔢 买入 Countdown（TD13）— 从 TD9 到 TD13 的倒计时</text>

  <text x="140" y="1330" fill="#e65100" font-size="22" font-weight="bold">核心规则：TD9 完成后，逐根K线检查 Close[i] ≤ Low[i-2]，累计到 13 次即完成</text>

  <!-- Countdown process visual -->
  <g transform="translate(100, 1350)">
    <!-- Timeline line -->
    <line x1="0" y1="100" x2="1380" y2="100" stroke="#ffb74d" stroke-width="3"/>

    <!-- Step: TD9 complete -->
    <circle cx="60" cy="100" r="30" fill="#2e7d32" stroke="white" stroke-width="3"/>
    <text x="60" y="108" text-anchor="middle" fill="white" font-size="18" font-weight="bold">9</text>
    <text x="60" y="150" text-anchor="middle" fill="#2e7d32" font-size="16" font-weight="bold">Setup完成</text>

    <!-- Arrow -->
    <line x1="100" y1="100" x2="160" y2="100" stroke="#ffb74d" stroke-width="2" marker-end="none"/>
    <polygon points="155,93 170,100 155,107" fill="#ffb74d"/>

    <!-- Countdown candle examples -->
    <!-- Candle 1 - satisfies -->
    <rect x="190" y="55" width="24" height="40" fill="#fff9c4" stroke="#f9a825" stroke-width="2" rx="2"/>
    <text x="202" y="48" text-anchor="middle" fill="#f9a825" font-size="18" font-weight="bold">1</text>
    <text x="202" y="115" text-anchor="middle" fill="#2e7d32" font-size="14">✓</text>

    <!-- Candle 2 - satisfies -->
    <rect x="240" y="60" width="24" height="35" fill="#fff9c4" stroke="#f9a825" stroke-width="2" rx="2"/>
    <text x="252" y="53" text-anchor="middle" fill="#f9a825" font-size="18" font-weight="bold">2</text>
    <text x="252" y="115" text-anchor="middle" fill="#2e7d32" font-size="14">✓</text>

    <!-- Candle 3 - SKIP -->
    <rect x="290" y="65" width="24" height="30" fill="#e0e0e0" stroke="#9e9e9e" stroke-width="2" rx="2"/>
    <text x="302" y="58" text-anchor="middle" fill="#9e9e9e" font-size="16">—</text>
    <text x="302" y="115" text-anchor="middle" fill="#9e9e9e" font-size="14">跳过</text>

    <!-- Candle 4 - satisfies -->
    <rect x="340" y="70" width="24" height="30" fill="#fff9c4" stroke="#f9a825" stroke-width="2" rx="2"/>
    <text x="352" y="63" text-anchor="middle" fill="#f9a825" font-size="18" font-weight="bold">3</text>
    <text x="352" y="115" text-anchor="middle" fill="#2e7d32" font-size="14">✓</text>

    <!-- Dots for continuation -->
    <text x="410" y="105" fill="#999" font-size="28">···</text>

    <!-- Candle ~10 -->
    <rect x="480" y="75" width="24" height="30" fill="#fff9c4" stroke="#f9a825" stroke-width="2" rx="2"/>
    <text x="492" y="68" text-anchor="middle" fill="#f9a825" font-size="18" font-weight="bold">10</text>
    <text x="492" y="115" text-anchor="middle" fill="#2e7d32" font-size="14">✓</text>

    <!-- Candle 11 -->
    <rect x="540" y="80" width="24" height="28" fill="#fff9c4" stroke="#f9a825" stroke-width="2" rx="2"/>
    <text x="552" y="73" text-anchor="middle" fill="#f9a825" font-size="18" font-weight="bold">11</text>
    <text x="552" y="115" text-anchor="middle" fill="#2e7d32" font-size="14">✓</text>

    <!-- Candle 12 -->
    <rect x="600" y="82" width="24" height="26" fill="#fff9c4" stroke="#f9a825" stroke-width="2" rx="2"/>
    <text x="612" y="75" text-anchor="middle" fill="#f9a825" font-size="18" font-weight="bold">12</text>
    <text x="612" y="115" text-anchor="middle" fill="#2e7d32" font-size="14">✓</text>

    <!-- Candle 13 - THE GOAL -->
    <rect x="660" y="85" width="28" height="28" fill="#ff9800" stroke="#e65100" stroke-width="3" rx="2"/>
    <text x="674" y="78" text-anchor="middle" fill="#e65100" font-size="20" font-weight="bold">13</text>
    <text x="674" y="115" text-anchor="middle" fill="#e65100" font-size="14" font-weight="bold">✓✓</text>

    <!-- Result box -->
    <rect x="760" y="55" width="280" height="90" rx="12" fill="#fff3e0" stroke="#e65100" stroke-width="3"/>
    <text x="900" y="85" text-anchor="middle" fill="#e65100" font-size="22" font-weight="bold">🏆 TD13 买入信号</text>
    <text x="900" y="115" text-anchor="middle" fill="#bf360c" font-size="18">Countdown 倒计时完成</text>

    <!-- Arrow to result -->
    <line x1="700" y1="95" x2="755" y2="95" stroke="#e65100" stroke-width="3"/>
    <polygon points="750,88 765,95 750,102" fill="#e65100"/>
  </g>

  <!-- Key difference highlight -->
  <rect x="100" y="1510" width="1400" height="120" rx="10" fill="#fff3e0" stroke="#ff9800" stroke-width="2"/>
  <text x="140" y="1545" fill="#e65100" font-size="22" font-weight="bold">🔑 Countdown vs Setup 关键区别：</text>
  <text x="140" y="1575" fill="#333" font-size="20">• Setup（TD9）：条件必须连续满足，任何一根失败都重置 →  排列阶段</text>
  <text x="140" y="1605" fill="#333" font-size="20">• Countdown（TD13）：条件不需要连续，累计达到13即可 → 倒计时阶段（计数不重置！）</text>

  <!-- Comparison arrow annotation -->
  <rect x="100" y="1650" width="1400" height="60" rx="10" fill="#e3f2fd" stroke="#42a5f5" stroke-width="2"/>
  <text x="800" y="1688" text-anchor="middle" fill="#1565c0" font-size="22" font-weight="bold">买入公式：Close[i] ≤ Low[i-2]  ｜  卖出公式：Close[i] ≥ High[i-2]  ｜  累计 13 次</text>

  <!-- ==================== SECTION 4: TD9 vs TD13 COMPARISON ==================== -->
  <rect x="60" y="1920" width="1480" height="480" rx="16" fill="white" filter="url(#shadow)"/>
  <rect x="60" y="1920" width="1480" height="60" rx="16" fill="#6a1b9a"/>
  <rect x="60" y="1960" width="1480" height="20" fill="#6a1b9a"/>
  <text x="800" y="1960" text-anchor="middle" fill="white" font-size="28" font-weight="bold">⚖️ TD9 vs TD13 全面对比</text>

  <!-- Comparison table -->
  <g transform="translate(100, 2000)">
    <!-- Header row -->
    <rect x="0" y="0" width="300" height="50" rx="8" fill="#6a1b9a"/>
    <text x="150" y="33" text-anchor="middle" fill="white" font-size="20" font-weight="bold">对比维度</text>
    <rect x="320" y="0" width="480" height="50" rx="8" fill="#1565c0"/>
    <text x="560" y="33" text-anchor="middle" fill="white" font-size="20" font-weight="bold">TD9（Setup 排列）</text>
    <rect x="820" y="0" width="480" height="50" rx="8" fill="#e65100"/>
    <text x="1060" y="33" text-anchor="middle" fill="white" font-size="20" font-weight="bold">TD13（Countdown 倒计时）</text>

    <!-- Row 1 -->
    <rect x="0" y="60" width="300" height="50" fill="#f3e5f5"/>
    <text x="150" y="92" text-anchor="middle" fill="#333" font-size="19" font-weight="bold">是否需要连续</text>
    <rect x="320" y="60" width="480" height="50" fill="#e3f2fd"/>
    <text x="560" y="92" text-anchor="middle" fill="#1565c0" font-size="19">✅ 必须连续 9 根</text>
    <rect x="820" y="60" width="480" height="50" fill="#fff3e0"/>
    <text x="1060" y="92" text-anchor="middle" fill="#e65100" font-size="19">❌ 不需要，累计到 13</text>

    <!-- Row 2 -->
    <rect x="0" y="115" width="300" height="50" fill="#ede7f6"/>
    <text x="150" y="147" text-anchor="middle" fill="#333" font-size="19" font-weight="bold">比较对象</text>
    <rect x="320" y="115" width="480" height="50" fill="#e8f5e9"/>
    <text x="560" y="147" text-anchor="middle" fill="#2e7d32" font-size="19">Close vs Close[i-4]</text>
    <rect x="820" y="115" width="480" height="50" fill="#fff3e0"/>
    <text x="1060" y="147" text-anchor="middle" fill="#e65100" font-size="19">Close vs Low/High[i-2]</text>

    <!-- Row 3 -->
    <rect x="0" y="170" width="300" height="50" fill="#f3e5f5"/>
    <text x="150" y="202" text-anchor="middle" fill="#333" font-size="19" font-weight="bold">信号强度</text>
    <rect x="320" y="170" width="480" height="50" fill="#e3f2fd"/>
    <text x="560" y="202" text-anchor="middle" fill="#1565c0" font-size="19">⭐⭐⭐ 初步预警</text>
    <rect x="820" y="170" width="480" height="50" fill="#fff3e0"/>
    <text x="1060" y="202" text-anchor="middle" fill="#e65100" font-size="19">⭐⭐⭐⭐⭐ 强确认</text>

    <!-- Row 4 -->
    <rect x="0" y="225" width="300" height="50" fill="#ede7f6"/>
    <text x="150" y="257" text-anchor="middle" fill="#333" font-size="19" font-weight="bold">出现频率</text>
    <rect x="320" y="225" width="480" height="50" fill="#e8f5e9"/>
    <text x="560" y="257" text-anchor="middle" fill="#2e7d32" font-size="19">较高（趋势中常见）</text>
    <rect x="820" y="225" width="480" height="50" fill="#fff3e0"/>
    <text x="1060" y="257" text-anchor="middle" fill="#e65100" font-size="19">较低（更稀缺更珍贵）</text>

    <!-- Row 5 -->
    <rect x="0" y="280" width="300" height="50" fill="#f3e5f5"/>
    <text x="150" y="312" text-anchor="middle" fill="#333" font-size="19" font-weight="bold">依赖关系</text>
    <rect x="320" y="280" width="480" height="50" fill="#e3f2fd"/>
    <text x="560" y="312" text-anchor="middle" fill="#1565c0" font-size="19">独立阶段</text>
    <rect x="820" y="280" width="480" height="50" fill="#fff3e0"/>
    <text x="1060" y="312" text-anchor="middle" fill="#e65100" font-size="19">必须先完成 TD9</text>

    <!-- Row 6 -->
    <rect x="0" y="335" width="300" height="50" fill="#ede7f6"/>
    <text x="150" y="367" text-anchor="middle" fill="#333" font-size="19" font-weight="bold">实战建议</text>
    <rect x="320" y="335" width="480" height="50" fill="#e8f5e9"/>
    <text x="560" y="367" text-anchor="middle" fill="#2e7d32" font-size="19">底仓试探 / 预警观察</text>
    <rect x="820" y="335" width="480" height="50" fill="#fff3e0"/>
    <text x="1060" y="367" text-anchor="middle" fill="#e65100" font-size="19">加仓确认 / 核心信号</text>
  </g>

  <!-- ==================== SECTION 5: TRADING STRATEGY ==================== -->
  <rect x="60" y="2440" width="1480" height="700" rx="16" fill="white" filter="url(#shadow)"/>
  <rect x="60" y="2440" width="1480" height="60" rx="16" fill="#0d47a1"/>
  <rect x="60" y="2480" width="1480" height="20" fill="#0d47a1"/>
  <text x="800" y="2480" text-anchor="middle" fill="white" font-size="28" font-weight="bold">🎯 TD13 实战交易策略</text>

  <!-- Strategy 1: Staged entry -->
  <rect x="100" y="2520" width="440" height="320" rx="12" fill="#e8f5e9" stroke="#66bb6a" stroke-width="2"/>
  <text x="320" y="2560" text-anchor="middle" fill="#1b5e20" font-size="24" font-weight="bold">策略一：分级建仓法</text>
  <line x1="130" y1="2575" x2="510" y2="2575" stroke="#66bb6a" stroke-width="1.5"/>
  
  <rect x="130" y="2595" width="380" height="50" rx="8" fill="#c8e6c9"/>
  <text x="320" y="2625" text-anchor="middle" fill="#1b5e20" font-size="18" font-weight="bold">TD9 完成 → 建 1/3 底仓</text>
  
  <text x="320" y="2665" text-anchor="middle" fill="#666" font-size="28">⬇</text>
  
  <rect x="130" y="2680" width="380" height="50" rx="8" fill="#a5d6a7"/>
  <text x="320" y="2710" text-anchor="middle" fill="#1b5e20" font-size="18" font-weight="bold">TD13 完成 → 加仓 1/3</text>
  
  <text x="320" y="2750" text-anchor="middle" fill="#666" font-size="28">⬇</text>
  
  <rect x="130" y="2765" width="380" height="50" rx="8" fill="#81c784"/>
  <text x="320" y="2795" text-anchor="middle" fill="#fff" font-size="18" font-weight="bold">突破确认 → 加仓最后 1/3</text>

  <!-- Strategy 2: TD13 + MA120 -->
  <rect x="580" y="2520" width="440" height="320" rx="12" fill="#e3f2fd" stroke="#42a5f5" stroke-width="2"/>
  <text x="800" y="2560" text-anchor="middle" fill="#0d47a1" font-size="24" font-weight="bold">策略二：TD13 + MA120</text>
  <line x1="610" y1="2575" x2="990" y2="2575" stroke="#42a5f5" stroke-width="1.5"/>
  
  <rect x="610" y="2595" width="380" height="55" rx="8" fill="#c8e6c9"/>
  <text x="800" y="2620" text-anchor="middle" fill="#1b5e20" font-size="16">✅ TD13 + 价格站上MA120</text>
  <text x="800" y="2640" text-anchor="middle" fill="#1b5e20" font-size="16">→ 可以建仓做多</text>
  
  <rect x="610" y="2665" width="380" height="55" rx="8" fill="#ffcdd2"/>
  <text x="800" y="2690" text-anchor="middle" fill="#c62828" font-size="16">❌ TD13 + 价格远在MA120下方</text>
  <text x="800" y="2710" text-anchor="middle" fill="#c62828" font-size="16">→ 可能只是反弹，谨慎</text>

  <rect x="610" y="2735" width="380" height="55" rx="8" fill="#fff9c4"/>
  <text x="800" y="2760" text-anchor="middle" fill="#f57f17" font-size="16">⚠ MA120反复交叉 = 盘整</text>
  <text x="800" y="2780" text-anchor="middle" fill="#f57f17" font-size="16">→ 信号可靠性下降</text>

  <!-- Strategy 3: Multi-timeframe -->
  <rect x="1060" y="2520" width="440" height="320" rx="12" fill="#f3e5f5" stroke="#ab47bc" stroke-width="2"/>
  <text x="1280" y="2560" text-anchor="middle" fill="#6a1b9a" font-size="24" font-weight="bold">策略三：多周期共振</text>
  <line x1="1090" y1="2575" x2="1470" y2="2575" stroke="#ab47bc" stroke-width="1.5"/>

  <rect x="1090" y="2595" width="380" height="45" rx="8" fill="#e1bee7"/>
  <text x="1280" y="2624" text-anchor="middle" fill="#4a148c" font-size="16">📅 日线 TD13 买入完成</text>
  
  <text x="1280" y="2660" text-anchor="middle" fill="#666" font-size="20">+</text>
  
  <rect x="1090" y="2670" width="380" height="45" rx="8" fill="#ce93d8"/>
  <text x="1280" y="2699" text-anchor="middle" fill="#4a148c" font-size="16">📅 周线 TD9 买入完成</text>
  
  <text x="1280" y="2735" text-anchor="middle" fill="#666" font-size="20">+</text>
  
  <rect x="1090" y="2745" width="380" height="45" rx="8" fill="#ba68c8"/>
  <text x="1280" y="2774" text-anchor="middle" fill="#fff" font-size="16">📅 60分钟线TD买入信号</text>

  <rect x="1090" y="2800" width="380" height="30" rx="8" fill="#6a1b9a"/>
  <text x="1280" y="2822" text-anchor="middle" fill="#fff" font-size="16" font-weight="bold">→ 最强确认！多个周期共振</text>

  <!-- Stop loss note -->
  <rect x="100" y="2860" width="1400" height="60" rx="10" fill="#ffebee" stroke="#e53935" stroke-width="2"/>
  <text x="800" y="2898" text-anchor="middle" fill="#c62828" font-size="22" font-weight="bold">🛑 止损规则：买入止损设在 TD13 最低点下方 ｜ 卖出止损设在 TD13 最高点上方</text>

  <!-- ==================== SECTION 6: COUNTDOWN CANCEL CONDITIONS ==================== -->
  <rect x="60" y="3180" width="1480" height="380" rx="16" fill="white" filter="url(#shadow)"/>
  <rect x="60" y="3180" width="1480" height="60" rx="16" fill="#c62828"/>
  <rect x="60" y="3220" width="1480" height="20" fill="#c62828"/>
  <text x="800" y="3220" text-anchor="middle" fill="white" font-size="28" font-weight="bold">🚫 Countdown 被取消的 4 种情况</text>

  <!-- Cancel card 1 -->
  <rect x="100" y="3260" width="330" height="120" rx="10" fill="#ffebee" stroke="#e53935" stroke-width="2"/>
  <text x="265" y="3295" text-anchor="middle" fill="#c62828" font-size="20" font-weight="bold">① 价格反向突破</text>
  <text x="265" y="3325" text-anchor="middle" fill="#555" font-size="17">买入Countdown中</text>
  <text x="265" y="3350" text-anchor="middle" fill="#555" font-size="17">价格涨破Setup最高点</text>
  <text x="265" y="3375" text-anchor="middle" fill="#c62828" font-size="17" font-weight="bold">→ 取消！</text>

  <!-- Cancel card 2 -->
  <rect x="460" y="3260" width="330" height="120" rx="10" fill="#ffebee" stroke="#e53935" stroke-width="2"/>
  <text x="625" y="3295" text-anchor="middle" fill="#c62828" font-size="20" font-weight="bold">② 新的反向 Setup</text>
  <text x="625" y="3325" text-anchor="middle" fill="#555" font-size="17">出现了相反方向的TD9</text>
  <text x="625" y="3350" text-anchor="middle" fill="#555" font-size="17">（如买入倒计时中出现卖出TD9）</text>
  <text x="625" y="3375" text-anchor="middle" fill="#c62828" font-size="17" font-weight="bold">→ 取消！</text>

  <!-- Cancel card 3 -->
  <rect x="820" y="3260" width="330" height="120" rx="10" fill="#fff3e0" stroke="#ff9800" stroke-width="2"/>
  <text x="985" y="3295" text-anchor="middle" fill="#e65100" font-size="20" font-weight="bold">③ 同向新 Setup</text>
  <text x="985" y="3325" text-anchor="middle" fill="#555" font-size="17">同方向又出现新的TD9</text>
  <text x="985" y="3350" text-anchor="middle" fill="#555" font-size="17">→ "Recycling 回收"</text>
  <text x="985" y="3375" text-anchor="middle" fill="#e65100" font-size="17" font-weight="bold">→ 重新开始！</text>

  <!-- Cancel card 4 -->
  <rect x="1180" y="3260" width="330" height="120" rx="10" fill="#ffebee" stroke="#e53935" stroke-width="2"/>
  <text x="1345" y="3295" text-anchor="middle" fill="#c62828" font-size="20" font-weight="bold">④ 价格跌破支撑</text>
  <text x="1345" y="3325" text-anchor="middle" fill="#555" font-size="17">卖出Countdown中</text>
  <text x="1345" y="3350" text-anchor="middle" fill="#555" font-size="17">价格跌破Setup最低点</text>
  <text x="1345" y="3375" text-anchor="middle" fill="#c62828" font-size="17" font-weight="bold">→ 取消！</text>

  <!-- Note -->
  <rect x="100" y="3400" width="1400" height="50" rx="10" fill="#fff9c4" stroke="#f9a825" stroke-width="2"/>
  <text x="800" y="3432" text-anchor="middle" fill="#f57f17" font-size="20" font-weight="bold">💡 Recycling 说明趋势还在延续但衰竭在加深，新的Countdown从新的Setup开始重新计数</text>

  <!-- ==================== SECTION 7: TIME PERIODS ==================== -->
  <rect x="60" y="3600" width="1480" height="340" rx="16" fill="white" filter="url(#shadow)"/>
  <rect x="60" y="3600" width="1480" height="60" rx="16" fill="#00695c"/>
  <rect x="60" y="3640" width="1480" height="20" fill="#00695c"/>
  <text x="800" y="3640" text-anchor="middle" fill="white" font-size="28" font-weight="bold">🕐 不同时间周期的 TD13 含义</text>

  <!-- Period cards -->
  <g transform="translate(100, 3680)">
    <rect x="0" y="0" width="260" height="110" rx="10" fill="#e0f2f1" stroke="#26a69a" stroke-width="2"/>
    <text x="130" y="35" text-anchor="middle" fill="#004d40" font-size="20" font-weight="bold">15分/30分钟</text>
    <text x="130" y="60" text-anchor="middle" fill="#555" font-size="16">短期转折</text>
    <text x="130" y="85" text-anchor="middle" fill="#00695c" font-size="15">日内/短线交易</text>

    <rect x="290" y="0" width="260" height="110" rx="10" fill="#e0f2f1" stroke="#26a69a" stroke-width="2"/>
    <text x="420" y="35" text-anchor="middle" fill="#004d40" font-size="20" font-weight="bold">60分钟/4小时</text>
    <text x="420" y="60" text-anchor="middle" fill="#555" font-size="16">中短期转折</text>
    <text x="420" y="85" text-anchor="middle" fill="#00695c" font-size="15">波段交易(1-2周)</text>

    <rect x="580" y="0" width="260" height="110" rx="10" fill="#b2dfdb" stroke="#00897b" stroke-width="3"/>
    <text x="710" y="35" text-anchor="middle" fill="#004d40" font-size="20" font-weight="bold">⭐ 日线 ⭐</text>
    <text x="710" y="60" text-anchor="middle" fill="#555" font-size="16">中期转折</text>
    <text x="710" y="85" text-anchor="middle" fill="#00695c" font-size="15" font-weight="bold">波段交易(2-4周)</text>

    <rect x="870" y="0" width="260" height="110" rx="10" fill="#e0f2f1" stroke="#26a69a" stroke-width="2"/>
    <text x="1000" y="35" text-anchor="middle" fill="#004d40" font-size="20" font-weight="bold">周线</text>
    <text x="1000" y="60" text-anchor="middle" fill="#555" font-size="16">中长期转折</text>
    <text x="1000" y="85" text-anchor="middle" fill="#00695c" font-size="15">中线(1-3个月)</text>

    <rect x="1160" y="0" width="260" height="110" rx="10" fill="#e0f2f1" stroke="#26a69a" stroke-width="2"/>
    <text x="1290" y="35" text-anchor="middle" fill="#004d40" font-size="20" font-weight="bold">月线</text>
    <text x="1290" y="60" text-anchor="middle" fill="#555" font-size="16">长期转折</text>
    <text x="1290" y="85" text-anchor="middle" fill="#00695c" font-size="15">长线(季度级别)</text>
  </g>

  <rect x="100" y="3810" width="1400" height="50" rx="10" fill="#e0f2f1" stroke="#26a69a" stroke-width="2"/>
  <text x="800" y="3842" text-anchor="middle" fill="#004d40" font-size="20" font-weight="bold">💡 日线级别 TD13 是最常用、信号可靠性和交易周期最适中的 → 推荐首选</text>

  <!-- ==================== SECTION 8: TRAPS ==================== -->
  <rect x="60" y="3980" width="1480" height="440" rx="16" fill="white" filter="url(#shadow)"/>
  <rect x="60" y="3980" width="1480" height="60" rx="16" fill="#b71c1c"/>
  <rect x="60" y="4020" width="1480" height="20" fill="#b71c1c"/>
  <text x="800" y="4020" text-anchor="middle" fill="white" font-size="28" font-weight="bold">⚠️ TD13 的 4 大陷阱</text>

  <!-- Trap cards -->
  <rect x="100" y="4060" width="700" height="160" rx="12" fill="#ffebee" stroke="#e53935" stroke-width="2"/>
  <text x="450" y="4095" text-anchor="middle" fill="#b71c1c" font-size="22" font-weight="bold">陷阱一：强趋势中 TD13 失效</text>
  <line x1="130" y1="4110" x2="770" y2="4110" stroke="#e53935" stroke-width="1"/>
  <text x="130" y="4140" fill="#555" font-size="18">暴跌/暴涨中，TD13完成后价格可能继续原方向</text>
  <text x="130" y="4170" fill="#555" font-size="18">对策：结合趋势指标（MA120、MACD方向）</text>
  <text x="130" y="4200" fill="#c62828" font-size="18" font-weight="bold">→ 必须设止损，防止趋势延续导致重大亏损</text>

  <rect x="820" y="4060" width="680" height="160" rx="12" fill="#ffebee" stroke="#e53935" stroke-width="2"/>
  <text x="1160" y="4095" text-anchor="middle" fill="#b71c1c" font-size="22" font-weight="bold">陷阱二：震荡市中频繁假信号</text>
  <line x1="850" y1="4110" x2="1470" y2="4110" stroke="#e53935" stroke-width="1"/>
  <text x="850" y="4140" fill="#555" font-size="18">横盘时TD9和TD13反复出现，互相矛盾</text>
  <text x="850" y="4170" fill="#555" font-size="18">对策：配合ATR判断波动率</text>
  <text x="850" y="4200" fill="#c62828" font-size="18" font-weight="bold">→ 低波动率横盘时，不依赖TD做方向性交易</text>

  <rect x="100" y="4240" width="700" height="160" rx="12" fill="#fff3e0" stroke="#ff9800" stroke-width="2"/>
  <text x="450" y="4275" text-anchor="middle" fill="#e65100" font-size="22" font-weight="bold">陷阱三：只看TD13 忽略大趋势</text>
  <line x1="130" y1="4290" x2="770" y2="4290" stroke="#ff9800" stroke-width="1"/>
  <text x="130" y="4320" fill="#555" font-size="18">周线/月线明确下跌，日线TD13可能只是反弹</text>
  <text x="130" y="4350" fill="#555" font-size="18">对策：先看大周期方向，再做小周期操作</text>
  <text x="130" y="4380" fill="#e65100" font-size="18" font-weight="bold">→ 顺大势、逆小势，不能逆大势</text>

  <rect x="820" y="4240" width="680" height="160" rx="12" fill="#fff3e0" stroke="#ff9800" stroke-width="2"/>
  <text x="1160" y="4275" text-anchor="middle" fill="#e65100" font-size="22" font-weight="bold">陷阱四：Countdown未完成就重仓</text>
  <line x1="850" y1="4290" x2="1470" y2="4290" stroke="#ff9800" stroke-width="1"/>
  <text x="850" y="4320" fill="#555" font-size="18">TD9出现就重仓入场，结果没走到TD13</text>
  <text x="850" y="4350" fill="#555" font-size="18">对策：TD9只是"预警"，不是"入场信号"</text>
  <text x="850" y="4380" fill="#e65100" font-size="18" font-weight="bold">→ 至少等TD13或结合其他确认指标再入场</text>

  <!-- ==================== SECTION 9: CHECKLIST ==================== -->
  <rect x="60" y="4460" width="1480" height="300" rx="16" fill="white" filter="url(#shadow)"/>
  <rect x="60" y="4460" width="1480" height="60" rx="16" fill="#1b5e20"/>
  <rect x="60" y="4500" width="1480" height="20" fill="#1b5e20"/>
  <text x="800" y="4500" text-anchor="middle" fill="white" font-size="28" font-weight="bold">✅ TD13 使用清单（每次交易前核对）</text>

  <g transform="translate(140, 4540)">
    <text x="0" y="30" fill="#1b5e20" font-size="22">1️⃣ 先看大周期趋势方向（周线/月线 MA 方向）</text>
    <text x="0" y="65" fill="#1b5e20" font-size="22">2️⃣ 等待 TD9 Setup 完成（预警阶段，不急于入场）</text>
    <text x="0" y="100" fill="#1b5e20" font-size="22">3️⃣ 观察 Countdown 是否向 13 推进（跟踪倒计时）</text>
    <text x="750" y="30" fill="#1b5e20" font-size="22">4️⃣ TD13完成 → 结合MA120/RSI/成交量确认</text>
    <text x="750" y="65" fill="#1b5e20" font-size="22">5️⃣ 确认后分批建仓，不一次性满仓</text>
    <text x="750" y="100" fill="#1b5e20" font-size="22">6️⃣ 设明确止损（TD13极值下方/上方）</text>
  </g>

  <!-- Final warning -->
  <rect x="60" y="4680" width="1480" height="80" rx="12" fill="#fff3e0" stroke="#ff9800" stroke-width="2"/>
  <text x="800" y="4715" text-anchor="middle" fill="#e65100" font-size="20" font-weight="bold">⚠️ 风险提示：TD13 是高概率转折信号识别工具，但不是100%胜率圣杯。永远设好止损，永远结合多指标确认。</text>
  <text x="800" y="4745" text-anchor="middle" fill="#e65100" font-size="18">本图为技术分析科普，不构成投资建议。投资有风险，入市需谨慎。</text>
</svg>